Coordinates
version=1
nRows=38
nColumns=38
inDegrees=no

Units are S.I. units (second, meters, Newtons, ...)
If the header above contains a line with 'inDegrees', this indicates whether rotational values are in degrees (yes) or radians (no).

endheader
time	pelvis_tilt	pelvis_list	pelvis_rotation	pelvis_tx	pelvis_ty	pelvis_tz	hip_flexion_r	hip_adduction_r	hip_rotation_r	knee_angle_r	ankle_angle_r	subtalar_angle_r	mtp_angle_r	hip_flexion_l	hip_adduction_l	hip_rotation_l	knee_angle_l	ankle_angle_l	subtalar_angle_l	mtp_angle_l	lumbar_extension	lumbar_bending	lumbar_rotation	arm_flex_r	arm_add_r	arm_rot_r	elbow_flex_r	pro_sup_r	wrist_flex_r	wrist_dev_r	arm_flex_l	arm_add_l	arm_rot_l	elbow_flex_l	pro_sup_l	wrist_flex_l	wrist_dev_l
22.55	1.44246	1.517	-0.0708909	0.730582	-0.550946	0.971133	0.228435	-0.000110742	0.0379222	0.934168	0.0467057	0	0	0.0593275	-0.00805158	-0.182324	0.0980909	0.0683932	0	0	-0.171446	0.12581	0.0904164	0.837459	-0.223795	0.441205	1.02259	1.5708	0	0	0.803847	-0.111598	0.479388	0.992091	1.5708	0	0
22.56	1.44536	1.51644	-0.0707914	0.729412	-0.550623	0.971142	0.246437	0.0030804	0.0425678	0.959576	0.0389757	0	0	0.0579314	-0.00717517	-0.182095	0.0953157	0.06648	0	0	-0.171816	0.125319	0.0850498	0.836826	-0.22692	0.441928	1.03174	1.5708	0	0	0.800412	-0.116069	0.480122	1.00392	1.5708	0	0
22.57	1.43778	1.51561	-0.0602863	0.728302	-0.550317	0.971164	0.264001	0.00667979	0.0467501	0.98158	0.0351322	0	0	0.0571176	-0.00665081	-0.181679	0.0924804	0.0645099	0	0	-0.171815	0.125144	0.0798748	0.836498	-0.230069	0.443426	1.04066	1.5708	0	0	0.796234	-0.120884	0.479868	1.01682	1.5708	0	0
22.58	1.43037	1.51434	-0.0498593	0.727255	-0.55001	0.971256	0.280346	0.0106973	0.0501679	1.00024	0.0370472	0	0	0.0566206	-0.00687119	-0.181211	0.0905749	0.0626191	0	0	-0.172047	0.12536	0.0746766	0.83604	-0.233819	0.445603	1.05067	1.5708	0	0	0.791349	-0.126279	0.478749	1.03124	1.5708	0	0
22.59	1.41719	1.51242	-0.0335303	0.726257	-0.549698	0.971373	0.295933	0.0150982	0.0523688	1.01525	0.0460654	0	0	0.0566339	-0.00783003	-0.17994	0.0886907	0.0604336	0	0	-0.172216	0.126296	0.069332	0.835757	-0.238366	0.449757	1.06197	1.5708	0	0	0.785286	-0.132823	0.476904	1.04864	1.5708	0	0
22.6	1.41471	1.50988	-0.0276327	0.725293	-0.549354	0.971579	0.309399	0.0197501	0.0533245	1.02559	0.0580086	0	0	0.0561037	-0.00939812	-0.178005	0.0867976	0.0578577	0	0	-0.173155	0.127932	0.0640767	0.835709	-0.243546	0.455004	1.07375	1.5708	0	0	0.778913	-0.139775	0.474791	1.06675	1.5708	0	0
22.61	1.41087	1.50722	-0.0202514	0.72437	-0.548969	0.971807	0.321656	0.0242948	0.0536812	1.03154	0.0692797	0	0	0.0557032	-0.0111303	-0.175808	0.0851279	0.0552435	0	0	-0.174006	0.129752	0.0586097	0.835574	-0.249112	0.461076	1.08647	1.5708	0	0	0.771571	-0.147565	0.471726	1.0869	1.5708	0	0
22.62	1.40441	1.50452	-0.0104968	0.723522	-0.548533	0.972056	0.332877	0.0287543	0.0536255	1.03318	0.0779295	0	0	0.0552034	-0.0129283	-0.173766	0.0831045	0.052818	0	0	-0.174627	0.131592	0.053288	0.834798	-0.255048	0.466943	1.10084	1.5708	0	0	0.763076	-0.156273	0.467783	1.10958	1.5708	0	0
22.63	1.39742	1.50174	-0.000493099	0.72276	-0.54804	0.972348	0.343027	0.0329606	0.0528353	1.03059	0.0841148	0	0	0.0543399	-0.014746	-0.172105	0.080411	0.0500674	0	0	-0.175267	0.133405	0.0485208	0.832897	-0.261861	0.471857	1.11771	1.5708	0	0	0.753595	-0.165706	0.464067	1.13447	1.5708	0	0
22.64	1.38872	1.49894	0.0110932	0.722066	-0.547471	0.972654	0.352212	0.0368224	0.051496	1.02451	0.0895797	0	0	0.0529239	-0.0165105	-0.170268	0.0765692	0.0469991	0	0	-0.175695	0.135172	0.0441539	0.829465	-0.269349	0.474869	1.13727	1.5708	0	0	0.743097	-0.175939	0.461242	1.16101	1.5708	0	0
22.65	1.37798	1.49623	0.0247996	0.7214	-0.546802	0.972957	0.360345	0.0401678	0.049386	1.01482	0.0940585	0	0	0.051227	-0.0181384	-0.168493	0.0719334	0.0438675	0	0	-0.175839	0.136807	0.0400184	0.823844	-0.277838	0.476296	1.16046	1.5708	0	0	0.731595	-0.18649	0.459282	1.18822	1.5708	0	0
22.66	1.25994	1.50114	0.154938	0.719942	-0.547314	0.973323	0.3775	0.0305357	0.0403538	1.00422	0.0967894	0	0	0.0596667	-0.0110718	-0.19259	0.064885	0.0357179	0	0	-0.170382	0.12972	0.0260962	0.815557	-0.284455	0.47295	1.18451	1.5708	0	0	0.721753	-0.198538	0.45871	1.21478	1.5708	0	0
22.67	1.35129	1.49138	0.057446	0.720282	-0.545201	0.973576	0.373576	0.0451039	0.04271	0.985916	0.100877	0	0	0.047643	-0.0208976	-0.165406	0.0619258	0.037735	0	0	-0.175143	0.139104	0.0324459	0.805485	-0.297697	0.478345	1.21282	1.5708	0	0	0.706321	-0.208117	0.456403	1.24184	1.5708	0	0
22.68	1.35298	1.488	0.0597016	0.719735	-0.544236	0.974011	0.376737	0.0476722	0.0369976	0.965423	0.1022	0	0	0.0445356	-0.0233285	-0.162013	0.0568134	0.0345554	0	0	-0.176178	0.141428	0.0279837	0.792845	-0.30975	0.479559	1.24517	1.5708	0	0	0.691875	-0.218894	0.452709	1.2711	1.5708	0	0
22.69	1.34635	1.48498	0.070283	0.719264	-0.543208	0.974375	0.37968	0.0494442	0.0303487	0.942514	0.102601	0	0	0.0422684	-0.0254475	-0.159011	0.0518598	0.0320537	0	0	-0.176172	0.143132	0.0232332	0.777892	-0.321249	0.47931	1.2777	1.5708	0	0	0.675276	-0.230914	0.449112	1.30098	1.5708	0	0
22.7	1.33968	1.4819	0.0811099	0.71885	-0.542112	0.974746	0.381544	0.050896	0.0226019	0.917533	0.102585	0	0	0.0401035	-0.0277588	-0.156117	0.0471808	0.0302229	0	0	-0.17604	0.144845	0.01806	0.760645	-0.332849	0.478579	1.31117	1.5708	0	0	0.656067	-0.244402	0.445862	1.33239	1.5708	0	0
22.71	1.33402	1.47843	0.0910672	0.718471	-0.540932	0.97514	0.381876	0.0524235	0.0135305	0.889526	0.102149	0	0	0.0376725	-0.0304833	-0.152891	0.041975	0.0284155	0	0	-0.175831	0.146992	0.0128228	0.740854	-0.344786	0.476825	1.34507	1.5708	0	0	0.63576	-0.257674	0.444803	1.36269	1.5708	0	0
22.72	1.34062	1.47978	0.0915663	0.717929	-0.539167	0.975289	0.375885	0.0421743	-0.00487511	0.853681	0.106165	0	0	0.0325574	-0.0277017	-0.147149	0.0356972	0.0260946	0	0	-0.175309	0.144079	0.00418886	0.717079	-0.356077	0.472446	1.37925	1.5708	0	0	0.614563	-0.272003	0.447638	1.39206	1.5708	0	0
22.73	1.33084	1.47621	0.105318	0.717735	-0.537829	0.975655	0.375065	0.044093	-0.0154192	0.822111	0.103957	0	0	0.0304085	-0.0308491	-0.144369	0.0310978	0.024638	0	0	-0.174483	0.146199	-0.00029898	0.692074	-0.367695	0.467256	1.41271	1.5708	0	0	0.591828	-0.284968	0.450412	1.41932	1.5708	0	0
22.74	1.31965	1.47213	0.12047	0.717646	-0.536439	0.975991	0.373717	0.0466369	-0.026646	0.789165	0.102061	0	0	0.0289241	-0.0346591	-0.142226	0.0271614	0.0237484	0	0	-0.173307	0.148806	-0.00454493	0.664836	-0.378784	0.460737	1.44513	1.5708	0	0	0.567346	-0.297941	0.453971	1.44524	1.5708	0	0
22.75	1.31022	1.46836	0.133648	0.717627	-0.534976	0.976353	0.371663	0.0488878	-0.0386376	0.755534	0.100174	0	0	0.0263309	-0.0381938	-0.139396	0.0213017	0.0215903	0	0	-0.172262	0.15097	-0.00840278	0.634147	-0.389135	0.450351	1.47811	1.5708	0	0	0.541331	-0.309789	0.45586	1.46921	1.5708	0	0
22.76	1.25034	1.45884	0.189256	0.717922	-0.534578	0.976773	0.375706	0.054504	-0.0602497	0.715507	0.0917816	0	0	0.0321	-0.0474525	-0.1426	0.0180006	0.0197239	0	0	-0.168333	0.158468	-0.00349638	0.603645	-0.400196	0.439052	1.51014	1.5708	0	0	0.512895	-0.31812	0.452536	1.48984	1.5708	0	0
22.77	1.30001	1.46098	0.150612	0.717927	-0.531837	0.977051	0.365505	0.0543863	-0.063614	0.688217	0.0948495	0	0	0.0201947	-0.0456926	-0.13429	0.0100897	0.0189165	0	0	-0.171285	0.154964	-0.0149653	0.5662	-0.406557	0.424008	1.54095	1.5708	0	0	0.482763	-0.332163	0.451712	1.51398	1.5708	0	0
22.78	1.30118	1.45741	0.152934	0.718217	-0.530159	0.977406	0.361311	0.057641	-0.0767176	0.655564	0.0916575	0	0	0.0161917	-0.0496409	-0.131435	0.00427055	0.0179218	0	0	-0.171405	0.156884	-0.0183497	0.529876	-0.413622	0.40955	1.56883	1.5708	0	0	0.451636	-0.341781	0.446581	1.53423	1.5708	0	0
22.79	1.30954	1.45386	0.148109	0.7186	-0.528397	0.977783	0.355972	0.061394	-0.0900054	0.62408	0.088271	0	0	0.0115269	-0.0538539	-0.128806	3.80192e-08	0.0173496	0	0	-0.172325	0.158771	-0.0215964	0.492391	-0.419066	0.394481	1.59333	1.5708	0	0	0.420006	-0.350297	0.440701	1.55233	1.5708	0	0
22.8	1.27767	1.44411	0.176049	0.719278	-0.527677	0.978253	0.355732	0.069668	-0.113862	0.587197	0.0776828	0	0	0.0150716	-0.0643083	-0.132191	0	0.0173273	0	0	-0.170787	0.166715	-0.0163649	0.45648	-0.425555	0.381376	1.6147	1.5708	0	0	0.38891	-0.353781	0.432641	1.56364	1.5708	0	0
22.81	1.33884	1.44628	0.126043	0.719649	-0.524597	0.978462	0.342938	0.0710083	-0.11606	0.565524	0.0814806	0	0	0.00168666	-0.0634467	-0.12455	0	0.0180888	0	0	-0.177465	0.162967	-0.0333229	0.420054	-0.42399	0.372065	1.63211	1.5708	0	0	0.333604	-0.330287	0.239425	1.68189	0.852944	0	0
22.82	1.36109	1.44261	0.107575	0.720301	-0.52259	0.978822	0.334986	0.0764969	-0.128609	0.538941	0.0788538	0	0	-0.00446437	-0.0683267	-0.122447	0	0.018528	0	0	-0.179816	0.165151	-0.0361538	0.380098	-0.426388	0.357237	1.64739	1.5708	0	0	0.301552	-0.335187	0.229032	1.69076	0.803929	0	0
22.83	1.38613	1.439	0.0863935	0.720999	-0.520487	0.979203	0.326359	0.0823017	-0.140791	0.514668	0.076963	0	0	-0.0112275	-0.0731473	-0.120454	0	0.0194177	0	0	-0.182251	0.167384	-0.0383803	0.33943	-0.427471	0.341405	1.6586	1.5708	0	0	0.269951	-0.338821	0.221288	1.69502	0.780504	0	0
22.84	1.41128	1.43531	0.0647725	0.721785	-0.518329	0.979599	0.317661	0.0885325	-0.152569	0.493084	0.0751458	0	0	-0.01821	-0.0780176	-0.11884	0	0.0204584	0	0	-0.184576	0.169733	-0.0396011	0.298795	-0.427405	0.324829	1.66537	1.5708	0	0	0.239316	-0.341164	0.215304	1.69423	0.768701	0	0
22.85	1.43771	1.43134	0.0418213	0.722604	-0.516099	0.980028	0.308391	0.0952447	-0.164568	0.473424	0.0728523	0	0	-0.0255898	-0.0832198	-0.117328	0	0.0216146	0	0	-0.186936	0.172573	-0.0401567	0.258115	-0.426144	0.306952	1.66849	1.5708	0	0	0.209979	-0.342539	0.211123	1.68848	0.757516	0	0
22.86	1.46214	1.42739	0.020746	0.723484	-0.513743	0.980433	0.298957	0.1022	-0.176006	0.455683	0.0698257	0	0	-0.0331545	-0.0884203	-0.115364	0	0.0227142	0	0	-0.188572	0.175487	-0.0400937	0.217388	-0.423816	0.289245	1.66817	1.5708	0	0	0.181871	-0.342885	0.208038	1.67714	0.746413	0	0
22.87	1.4988	1.4237	-0.0129194	0.72436	-0.511625	0.980978	0.287843	0.110213	-0.184872	0.439939	0.0649326	0	0	-0.0319452	-0.0922883	-0.107977	0	0.0233551	0	0	-0.192634	0.178022	-0.0386762	0.177739	-0.419414	0.27341	1.66375	1.5708	0	0	0.155793	-0.34194	0.205362	1.66029	0.73494	0	0
22.88	1.53039	1.42047	-0.0412901	0.725231	-0.509273	0.98138	0.276902	0.116785	-0.193434	0.426185	0.0594651	0	0	-0.0397915	-0.0966839	-0.106236	0	0.0256589	0	0	-0.19534	0.181429	-0.0390509	0.154508	-0.414978	0.304833	1.67733	1.5708	0	0	0.130318	-0.339605	0.200207	1.6384	0.717504	0	0
22.89	1.69743	1.40189	-0.272994	0.733596	-0.512201	0.986073	0.236688	0.161481	-0.123937	0.39816	0.021991	0	0	-0.0837302	-0.115422	-0.181816	0	0.026294	0	0	-0.252419	0.176586	0.0374932	0.125124	-0.408579	0.24518	1.63998	1.5708	0	0	0.128339	-0.341021	0.200603	1.61638	0.691575	0	0
22.9	1.53937	1.41173	-0.0520343	0.727122	-0.505324	0.982197	0.260991	0.132862	-0.214327	0.396343	0.0363803	0	0	-0.0471544	-0.107897	-0.110574	0	0.03221	0	0	-0.19552	0.190246	-0.0298086	0.0919003	-0.408007	0.276767	1.64632	1.5708	0	0	0.0876607	-0.327365	0.189912	1.5793	0.68019	0	0
22.91	1.56078	1.41136	-0.0706525	0.728043	-0.5026	0.9824	0.251216	0.136024	-0.220426	0.387949	0.0271445	0	0	-0.0537715	-0.109252	-0.109041	0	0.0363809	0	0	-0.19334	0.190608	-0.0260094	0.0593179	-0.403267	0.26036	1.62668	1.5708	0	0	0.0844085	-0.360981	0.388232	1.46927	1.5708	0	0
22.92	1.56212	1.41189	-0.0701104	0.729083	-0.499349	0.982323	0.242747	0.136313	-0.226198	0.378048	0.0178275	0	0	-0.068711	-0.111055	-0.114406	0	0.0420164	0	0	-0.18884	0.189216	-0.0268909	0.0219235	-0.399832	0.215029	1.5744	1.5708	0	0	0.0621285	-0.354736	0.378309	1.44012	1.5708	0	0
